<?xml version="1.0" encoding="UTF-8"?>
<svg xmlns="http://www.w3.org/2000/svg" xmlns:xlink="http://www.w3.org/1999/xlink" width="112px" height="149px" viewBox="0 0 112 149" version="1.1">
<g id="surface1">
<path style=" stroke:none;fill-rule:nonzero;fill: #ff0f0f;fill-opacity:1;" d="M 112 92.863281 C 112 123.945312 86.886719 149 56 149 C 25.113281 149 0 123.933594 0 93.125 C 0 76.050781 8.113281 62.042969 15.917969 54.101562 C 20.28125 49.269531 28 52.324219 28 58.640625 L 28 83.523438 C 28 93.757812 36.15625 102.292969 46.421875 102.421875 C 56.847656 102.582031 65.332031 94.171875 65.332031 83.8125 C 65.332031 58.203125 14.261719 55.839844 50.121094 3.144531 C 54.058594 -2.597656 63 0.0078125 63 6.933594 C 62.738281 36.960938 112 43.566406 112 92.863281 Z M 112 92.863281 "/>
</g>
</svg>
