<?xml version="1.0" encoding="UTF-8"?>
<svg xmlns="http://www.w3.org/2000/svg" xmlns:xlink="http://www.w3.org/1999/xlink" width="50px" height="57px" viewBox="0 0 50 57" version="1.1">
<g id="surface1">
<path style=" stroke:none;fill-rule:nonzero;fill:rgb(0%,0%,0%);fill-opacity:1;" d="M 25 28.5 C 32.890625 28.5 39.285156 22.121094 39.285156 14.25 C 39.285156 6.378906 32.890625 0 25 0 C 17.109375 0 10.714844 6.378906 10.714844 14.25 C 10.714844 22.121094 17.109375 28.5 25 28.5 Z M 30.660156 33.84375 L 19.339844 33.84375 C 8.660156 33.84375 0 42.484375 0 53.136719 C 0 55.269531 1.730469 56.996094 3.867188 56.996094 L 46.132812 56.996094 C 48.269531 57 50 55.273438 50 53.136719 C 50 42.484375 41.339844 33.84375 30.660156 33.84375 Z M 30.660156 33.84375 "/>
</g>
</svg>
